<svg width="20" height="20" viewBox="0 0 20 20" fill="none" xmlns="http://www.w3.org/2000/svg">
<g clip-path="url(#clip0_18_270)">
<path d="M15.5 14H14.7L14.4 13.7C15.4 12.6 16 11.1 16 9.5C16 5.9 13.1 3 9.5 3C5.9 3 3 5.9 3 9.5C3 13.1 5.9 16 9.5 16C11.1 16 12.6 15.4 13.7 14.4L14 14.7V15.5L19 20.5L20.5 19L15.5 14ZM9.5 14C7 14 5 12 5 9.5C5 7 7 5 9.5 5C12 5 14 7 14 9.5C14 12 12 14 9.5 14Z" fill="#64748B"/>
</g>
<defs>
<clipPath id="clip0_18_270">
<rect width="20" height="20" fill="white"/>
</clipPath>
</defs>
</svg>
